<mxfile host="app.diagrams.net" modified="2022-11-18T02:36:06.334Z" agent="5.0 (Windows NT 10.0; Win64; x64) AppleWebKit/537.36 (KHTML, like Gecko) Chrome/107.0.0.0 Safari/537.36 Edg/107.0.1418.42" etag="VdX_icTQ1mv6CJo2FhZ6" version="20.5.3" type="github">
  <diagram id="U1FMwSItcwg7t5gCMyaE" name="第 1 页">
    <mxGraphModel dx="1422" dy="778" grid="1" gridSize="10" guides="1" tooltips="1" connect="1" arrows="1" fold="1" page="1" pageScale="1" pageWidth="827" pageHeight="1169" math="0" shadow="0">
      <root>
        <mxCell id="0" />
        <mxCell id="1" parent="0" />
        <mxCell id="3LiQr8wCGCh7OgG0KYY2-3" value="&lt;span style=&quot;font-size: 14px;&quot;&gt;快控云平台&lt;/span&gt;" style="rounded=0;whiteSpace=wrap;html=1;align=right;" parent="1" vertex="1">
          <mxGeometry x="280" y="400" width="370" height="190" as="geometry" />
        </mxCell>
        <mxCell id="3LiQr8wCGCh7OgG0KYY2-15" value="&lt;font style=&quot;font-size: 14px;&quot;&gt;其他平台&lt;/font&gt;" style="rounded=0;whiteSpace=wrap;html=1;" parent="1" vertex="1">
          <mxGeometry x="280" y="720" width="370" height="90" as="geometry" />
        </mxCell>
        <mxCell id="3LiQr8wCGCh7OgG0KYY2-18" value="" style="endArrow=classic;html=1;rounded=0;fillColor=#fff2cc;strokeColor=#00CC00;exitX=0.5;exitY=1;exitDx=0;exitDy=0;" parent="1" source="L51531q8kxPah6j-Oe_d-31" edge="1">
          <mxGeometry width="50" height="50" relative="1" as="geometry">
            <mxPoint x="402" y="610" as="sourcePoint" />
            <mxPoint x="402" y="720" as="targetPoint" />
            <Array as="points" />
          </mxGeometry>
        </mxCell>
        <mxCell id="3LiQr8wCGCh7OgG0KYY2-19" value="上报" style="edgeLabel;html=1;align=center;verticalAlign=middle;resizable=0;points=[];" parent="3LiQr8wCGCh7OgG0KYY2-18" vertex="1" connectable="0">
          <mxGeometry x="-0.2997" relative="1" as="geometry">
            <mxPoint y="19" as="offset" />
          </mxGeometry>
        </mxCell>
        <mxCell id="3LiQr8wCGCh7OgG0KYY2-20" value="设备告警信息" style="text;html=1;strokeColor=#6c8ebf;fillColor=#dae8fc;align=center;verticalAlign=middle;whiteSpace=wrap;rounded=0;dashed=1;" parent="1" vertex="1">
          <mxGeometry x="300" y="420" width="100" height="70" as="geometry" />
        </mxCell>
        <mxCell id="L51531q8kxPah6j-Oe_d-4" value="设备配置信息" style="text;html=1;strokeColor=#6c8ebf;fillColor=#dae8fc;align=center;verticalAlign=middle;whiteSpace=wrap;rounded=0;dashed=1;" parent="1" vertex="1">
          <mxGeometry x="400" y="420" width="100" height="70" as="geometry" />
        </mxCell>
        <mxCell id="L51531q8kxPah6j-Oe_d-28" value="" style="endArrow=classic;html=1;rounded=0;strokeColor=#00CC00;fontSize=12;exitX=0.5;exitY=1;exitDx=0;exitDy=0;" parent="1" target="L51531q8kxPah6j-Oe_d-31" edge="1">
          <mxGeometry width="50" height="50" relative="1" as="geometry">
            <mxPoint x="402" y="520" as="sourcePoint" />
            <mxPoint x="542" y="480" as="targetPoint" />
          </mxGeometry>
        </mxCell>
        <mxCell id="L51531q8kxPah6j-Oe_d-31" value="消息格式处理" style="text;html=1;strokeColor=#82b366;fillColor=#d5e8d4;align=center;verticalAlign=middle;whiteSpace=wrap;rounded=0;fontSize=12;" parent="1" vertex="1">
          <mxGeometry x="372" y="559" width="60" height="30" as="geometry" />
        </mxCell>
        <mxCell id="L51531q8kxPah6j-Oe_d-33" value="" style="endArrow=classic;html=1;rounded=0;fontSize=14;fillColor=#ffe6cc;strokeColor=#d79b00;entryX=0;entryY=0.5;entryDx=0;entryDy=0;" parent="1" source="nKhHFK2LWmHyE8H1EhtR-2" target="L51531q8kxPah6j-Oe_d-31" edge="1">
          <mxGeometry width="50" height="50" relative="1" as="geometry">
            <mxPoint x="325" y="540" as="sourcePoint" />
            <mxPoint x="327.5" y="542" as="targetPoint" />
            <Array as="points">
              <mxPoint x="320" y="574" />
            </Array>
          </mxGeometry>
        </mxCell>
        <mxCell id="L51531q8kxPah6j-Oe_d-36" value="" style="endArrow=classic;html=1;rounded=0;fontSize=14;fillColor=#ffe6cc;strokeColor=#d79b00;entryX=1;entryY=0.5;entryDx=0;entryDy=0;exitX=0.5;exitY=1;exitDx=0;exitDy=0;" parent="1" source="nKhHFK2LWmHyE8H1EhtR-3" edge="1">
          <mxGeometry width="50" height="50" relative="1" as="geometry">
            <mxPoint x="490" y="530" as="sourcePoint" />
            <mxPoint x="432" y="570" as="targetPoint" />
            <Array as="points">
              <mxPoint x="481" y="570" />
            </Array>
          </mxGeometry>
        </mxCell>
        <mxCell id="L51531q8kxPah6j-Oe_d-51" value="&lt;font color=&quot;#82b366&quot;&gt;针对不同的目标平台，对上报数据做对应的格式转换，并通过对应的传输协议进行上报&lt;/font&gt;" style="text;html=1;strokeColor=none;fillColor=none;align=center;verticalAlign=middle;whiteSpace=wrap;rounded=0;dashed=1;fontSize=12;fontColor=#000000;" parent="1" vertex="1">
          <mxGeometry x="89" y="561" width="175" height="30" as="geometry" />
        </mxCell>
        <mxCell id="L51531q8kxPah6j-Oe_d-52" value="" style="endArrow=none;dashed=1;html=1;rounded=0;strokeColor=#82B366;fontSize=12;fontColor=#82B366;" parent="1" source="L51531q8kxPah6j-Oe_d-51" target="L51531q8kxPah6j-Oe_d-31" edge="1">
          <mxGeometry width="50" height="50" relative="1" as="geometry">
            <mxPoint x="240" y="640" as="sourcePoint" />
            <mxPoint x="290" y="590" as="targetPoint" />
          </mxGeometry>
        </mxCell>
        <mxCell id="L51531q8kxPah6j-Oe_d-53" value="&lt;font color=&quot;#000000&quot;&gt;转发设备列表&lt;/font&gt;" style="rounded=0;whiteSpace=wrap;html=1;dashed=1;fontSize=12;fontColor=#D79B00;" parent="1" vertex="1">
          <mxGeometry x="511" y="485" width="60" height="30" as="geometry" />
        </mxCell>
        <mxCell id="L51531q8kxPah6j-Oe_d-56" value="定时任务" style="text;html=1;strokeColor=#82b366;fillColor=#d5e8d4;align=center;verticalAlign=middle;whiteSpace=wrap;rounded=0;fontSize=12;" parent="1" vertex="1">
          <mxGeometry x="372" y="490" width="60" height="20" as="geometry" />
        </mxCell>
        <mxCell id="L51531q8kxPah6j-Oe_d-58" value="" style="endArrow=classic;html=1;rounded=0;strokeColor=#000000;fontSize=12;fontColor=#000000;exitX=0;exitY=0.5;exitDx=0;exitDy=0;dashed=1;dashPattern=1 4;" parent="1" source="L51531q8kxPah6j-Oe_d-53" target="L51531q8kxPah6j-Oe_d-56" edge="1">
          <mxGeometry width="50" height="50" relative="1" as="geometry">
            <mxPoint x="570" y="510" as="sourcePoint" />
            <mxPoint x="620" y="460" as="targetPoint" />
          </mxGeometry>
        </mxCell>
        <mxCell id="nKhHFK2LWmHyE8H1EhtR-1" value="转发平台" style="rounded=0;whiteSpace=wrap;html=1;" parent="1" vertex="1">
          <mxGeometry x="432" y="620" width="218" height="70" as="geometry" />
        </mxCell>
        <mxCell id="nKhHFK2LWmHyE8H1EhtR-2" value="&lt;font color=&quot;#d79b00&quot;&gt;新告警&lt;/font&gt;" style="text;html=1;strokeColor=none;fillColor=none;align=center;verticalAlign=middle;whiteSpace=wrap;rounded=0;" parent="1" vertex="1">
          <mxGeometry x="290" y="520" width="60" height="30" as="geometry" />
        </mxCell>
        <mxCell id="nKhHFK2LWmHyE8H1EhtR-3" value="配置变更" style="text;html=1;strokeColor=none;fillColor=none;align=center;verticalAlign=middle;whiteSpace=wrap;rounded=0;fontColor=#D79B00;" parent="1" vertex="1">
          <mxGeometry x="451" y="520" width="60" height="30" as="geometry" />
        </mxCell>
      </root>
    </mxGraphModel>
  </diagram>
</mxfile>
